<?xml version="1.0" encoding="UTF-8" standalone="no"?>
<!-- Created with Inkscape (http://www.inkscape.org/) -->

<svg
   xmlns:dc="http://purl.org/dc/elements/1.1/"
   xmlns:cc="http://creativecommons.org/ns#"
   xmlns:rdf="http://www.w3.org/1999/02/22-rdf-syntax-ns#"
   xmlns:svg="http://www.w3.org/2000/svg"
   xmlns="http://www.w3.org/2000/svg"
   xmlns:sodipodi="http://sodipodi.sourceforge.net/DTD/sodipodi-0.dtd"
   xmlns:inkscape="http://www.inkscape.org/namespaces/inkscape"
   width="93.427078mm"
   height="72.516747mm"
   viewBox="0 0 93.427078 72.516747"
   version="1.1"
   id="svg3191"
   inkscape:version="0.92.2 (5c3e80d, 2017-08-06)"
   sodipodi:docname="Cannon.svg">
  <defs
     id="defs3185" />
  <sodipodi:namedview
     id="base"
     pagecolor="#ffffff"
     bordercolor="#666666"
     borderopacity="1.0"
     inkscape:pageopacity="0.0"
     inkscape:pageshadow="2"
     inkscape:zoom="0.35"
     inkscape:cx="230.84082"
     inkscape:cy="31.325237"
     inkscape:document-units="mm"
     inkscape:current-layer="layer1"
     showgrid="false"
     inkscape:window-width="1853"
     inkscape:window-height="1025"
     inkscape:window-x="67"
     inkscape:window-y="27"
     inkscape:window-maximized="1" />
  <metadata
     id="metadata3188">
    <rdf:RDF>
      <cc:Work
         rdf:about="">
        <dc:format>image/svg+xml</dc:format>
        <dc:type
           rdf:resource="http://purl.org/dc/dcmitype/StillImage" />
        <dc:title></dc:title>
      </cc:Work>
    </rdf:RDF>
  </metadata>
  <g
     inkscape:label="Layer 1"
     inkscape:groupmode="layer"
     id="layer1"
     transform="translate(-44.756699,-84.604722)">
    <g
       transform="matrix(1.9746187,0,0,1.9746187,41.338174,80.858871)"
       inkscape:label="Layer 1"
       id="layer1-6">
      <g
         id="g5944"
         transform="translate(-99.023361,-147.53278)">
        <g
           id="g3727"
           transform="matrix(0.35277777,0,0,-0.35277777,101.91686,175.00922)">
          <path
             d="M 0,0 C 2.855,1.331 6.249,0.096 7.58,-2.759 8.911,-5.614 7.676,-9.008 4.821,-10.339 1.966,-11.67 -1.428,-10.435 -2.759,-7.58 -4.09,-4.725 -2.855,-1.331 0,0"
             style="fill:#000000;fill-opacity:1;fill-rule:nonzero;stroke:none"
             id="path3729"
             inkscape:connector-curvature="0" />
        </g>
        <g
           id="g3731"
           transform="matrix(0.35277777,0,0,-0.35277777,144.92367,165.57365)">
          <path
             d="m 0,0 -18.237,39.11 c -1.088,2.332 -0.069,5.129 2.262,6.216 2.332,1.088 5.129,0.069 6.217,-2.262 L 8.479,3.954 C 9.566,1.622 8.548,-1.175 6.216,-2.263 3.885,-3.35 1.087,-2.332 0,0"
             style="fill:#4d4d4d;fill-opacity:1;fill-rule:nonzero;stroke:none"
             id="path3733"
             inkscape:connector-curvature="0" />
        </g>
        <g
           id="g3735"
           transform="matrix(0.35277777,0,0,-0.35277777,147.91481,164.17887)">
          <path
             d="M 0,0 -2.662,5.709 C -1.73,3.71 -2.603,1.313 -4.601,0.381 l -1.212,-0.565 c -1.998,-0.932 -4.396,-0.059 -5.328,1.939 l 2.662,-5.709 c 1.088,-2.331 3.885,-3.35 6.216,-2.262 C 0.069,-5.129 1.087,-2.332 0,0"
             style="fill:#333333;fill-opacity:1;fill-rule:nonzero;stroke:none"
             id="path3737"
             inkscape:connector-curvature="0" />
        </g>
        <g
           id="g3739"
           transform="matrix(0.35277777,0,0,-0.35277777,140.11317,151.91081)">
          <path
             d="M 0,0 1.212,0.565 C 3.21,1.497 5.608,0.624 6.54,-1.374 L 3.878,4.334 C 2.79,6.666 -0.007,7.684 -2.339,6.597 -4.67,5.51 -5.688,2.712 -4.601,0.381 l 2.662,-5.709 C -2.871,-3.33 -1.998,-0.932 0,0"
             style="fill:#666666;fill-opacity:1;fill-rule:nonzero;stroke:none"
             id="path3741"
             inkscape:connector-curvature="0" />
        </g>
        <g
           id="g3743"
           transform="matrix(0.35277777,0,0,-0.35277777,102.76723,176.8329)">
          <path
             d="M 0,0 V 0 C 6.732,-14.437 21.663,-21.723 33.348,-16.274 L 119.534,31.84 101.226,71.102 8.969,36.007 C -2.716,30.558 -6.732,14.437 0,0"
             style="fill:#333333;fill-opacity:1;fill-rule:nonzero;stroke:none"
             id="path3745"
             inkscape:connector-curvature="0" />
        </g>
        <g
           id="g3747"
           transform="matrix(0.35277777,0,0,-0.35277777,107.17757,166.80301)">
          <path
             d="M 0,0 91.377,36.982 88.724,42.671 -3.533,7.576 C -15.218,2.127 -19.234,-13.994 -12.502,-28.431 -17.283,-18.178 -11.686,-5.449 0,0"
             style="fill:#4d4d4d;fill-opacity:1;fill-rule:nonzero;stroke:none"
             id="path3749"
             inkscape:connector-curvature="0" />
        </g>
        <g
           id="g3751"
           transform="matrix(0.35277777,0,0,-0.35277777,144.93621,165.6005)">
          <path
             d="m 0,0 -2.653,5.689 -87.066,-46.227 c -11.685,-5.449 -25.034,-1.555 -29.815,8.698 6.732,-14.437 21.662,-21.723 33.348,-16.274 z"
             style="fill:#000000;fill-opacity:1;fill-rule:nonzero;stroke:none"
             id="path3753"
             inkscape:connector-curvature="0" />
        </g>
        <g
           style="fill:#eec600;fill-opacity:1"
           id="g3759"
           transform="matrix(0.35277777,0,0,-0.35277777,107.77942,186.15421)">
          <path
             d="m 0,0 c -0.316,0 -0.545,0.157 -0.686,0.468 -0.138,0.31 -0.112,0.608 0.079,0.884 l 27.991,40.123 c 0.191,0.271 0.435,0.328 0.607,0.328 0.171,0 0.415,-0.057 0.605,-0.328 L 56.588,1.352 C 56.779,1.076 56.805,0.778 56.667,0.468 56.527,0.157 56.297,0 55.981,0 Z"
             style="fill:#eec600;fill-opacity:1;fill-rule:nonzero;stroke:none"
             id="path3761"
             inkscape:connector-curvature="0" />
        </g>
        <g
           id="g3763"
           transform="matrix(0.35277777,0,0,-0.35277777,113.72114,180.86875)">
          <path
             d="m 0,0 c 0,6.157 4.991,11.148 11.148,11.148 6.157,0 11.148,-4.991 11.148,-11.148 0,-6.157 -4.991,-11.148 -11.148,-11.148 C 4.991,-11.148 0,-6.157 0,0"
             style="fill:#333333;fill-opacity:1;fill-rule:nonzero;stroke:none"
             id="path3765"
             inkscape:connector-curvature="0" />
        </g>
        <g
           id="g3767"
           transform="matrix(0.35277777,0,0,-0.35277777,114.66819,180.86875)">
          <path
             d="m 0,0 c 0,4.674 3.789,8.464 8.463,8.464 4.675,0 8.464,-3.79 8.464,-8.464 0,-4.674 -3.789,-8.464 -8.464,-8.464 C 3.789,-8.464 0,-4.674 0,0"
             style="fill:#000000;fill-opacity:1;fill-rule:nonzero;stroke:none"
             id="path3769"
             inkscape:connector-curvature="0" />
        </g>
        <g
           id="g2332"
           transform="translate(0.80395269,1.6079053)">
          <g
             transform="translate(4.2111807,0.76566922)"
             id="g2266">
            <g
               id="g2257"
               transform="translate(-0.57425192,-4.7854326)">
              <g
                 transform="matrix(0.35277777,0,0,-0.35277777,131.47995,183.53999)"
                 id="g3771">
                <path
                   inkscape:connector-curvature="0"
                   id="path3773"
                   style="fill:#333333;fill-opacity:1;fill-rule:nonzero;stroke:none"
                   d="m 0,0 c 0,6.272 5.084,11.356 11.356,11.356 6.272,0 11.357,-5.084 11.357,-11.356 0,-6.272 -5.085,-11.356 -11.357,-11.356 C 5.084,-11.356 0,-6.272 0,0" />
              </g>
              <g
                 transform="matrix(0.35277777,0,0,-0.35277777,132.32976,183.53999)"
                 id="g3775">
                <path
                   inkscape:connector-curvature="0"
                   id="path3777"
                   style="fill:#4d4d4d;fill-opacity:1;fill-rule:nonzero;stroke:none"
                   d="M 0,0 C 0,6.272 4.006,11.356 8.947,11.356 2.675,11.356 -2.409,6.272 -2.409,0 -2.409,-6.272 2.675,-11.356 8.947,-11.356 4.006,-11.356 0,-6.272 0,0" />
              </g>
              <g
                 transform="matrix(0.35277777,0,0,-0.35277777,135.48619,179.53377)"
                 id="g3779">
                <path
                   inkscape:connector-curvature="0"
                   id="path3781"
                   style="fill:#000000;fill-opacity:1;fill-rule:nonzero;stroke:none"
                   d="m 0,0 c 4.941,0 8.947,-5.084 8.947,-11.356 0,-6.272 -4.006,-11.357 -8.947,-11.357 6.272,0 11.356,5.085 11.356,11.357 C 11.356,-5.084 6.272,0 0,0" />
              </g>
            </g>
          </g>
          <g
             id="g2314"
             transform="translate(-2.1055903,0.95708653)">
            <g
               transform="translate(-0.57425192,-4.7854326)"
               id="g2312">
              <g
                 id="g2302"
                 transform="matrix(0.35277777,0,0,-0.35277777,131.47995,183.53999)">
                <path
                   d="m 0,0 c 0,6.272 5.084,11.356 11.356,11.356 6.272,0 11.357,-5.084 11.357,-11.356 0,-6.272 -5.085,-11.356 -11.357,-11.356 C 5.084,-11.356 0,-6.272 0,0"
                   style="fill:#333333;fill-opacity:1;fill-rule:nonzero;stroke:none"
                   id="path2300"
                   inkscape:connector-curvature="0" />
              </g>
              <g
                 id="g2306"
                 transform="matrix(0.35277777,0,0,-0.35277777,132.32976,183.53999)">
                <path
                   d="M 0,0 C 0,6.272 4.006,11.356 8.947,11.356 2.675,11.356 -2.409,6.272 -2.409,0 -2.409,-6.272 2.675,-11.356 8.947,-11.356 4.006,-11.356 0,-6.272 0,0"
                   style="fill:#4d4d4d;fill-opacity:1;fill-rule:nonzero;stroke:none"
                   id="path2304"
                   inkscape:connector-curvature="0" />
              </g>
              <g
                 id="g2310"
                 transform="matrix(0.35277777,0,0,-0.35277777,135.48619,179.53377)">
                <path
                   d="m 0,0 c 4.941,0 8.947,-5.084 8.947,-11.356 0,-6.272 -4.006,-11.357 -8.947,-11.357 6.272,0 11.356,5.085 11.356,11.357 C 11.356,-5.084 6.272,0 0,0"
                   style="fill:#000000;fill-opacity:1;fill-rule:nonzero;stroke:none"
                   id="path2308"
                   inkscape:connector-curvature="0" />
              </g>
            </g>
          </g>
        </g>
      </g>
    </g>
  </g>
</svg>
