<?xml version="1.0" encoding="UTF-8" standalone="no"?>
<!-- Created with Inkscape (http://www.inkscape.org/) -->

<svg
   xmlns:dc="http://purl.org/dc/elements/1.1/"
   xmlns:cc="http://creativecommons.org/ns#"
   xmlns:rdf="http://www.w3.org/1999/02/22-rdf-syntax-ns#"
   xmlns:svg="http://www.w3.org/2000/svg"
   xmlns="http://www.w3.org/2000/svg"
   xmlns:sodipodi="http://sodipodi.sourceforge.net/DTD/sodipodi-0.dtd"
   xmlns:inkscape="http://www.inkscape.org/namespaces/inkscape"
   width="94.63726mm"
   height="98.240051mm"
   viewBox="0 0 94.63726 98.240051"
   version="1.1"
   id="svg2967"
   inkscape:version="0.92.2 (5c3e80d, 2017-08-06)"
   sodipodi:docname="Char-Muskteer.svg">
  <defs
     id="defs2961" />
  <sodipodi:namedview
     id="base"
     pagecolor="#ffffff"
     bordercolor="#666666"
     borderopacity="1.0"
     inkscape:pageopacity="0.0"
     inkscape:pageshadow="2"
     inkscape:zoom="0.35"
     inkscape:cx="221.69921"
     inkscape:cy="208.50765"
     inkscape:document-units="mm"
     inkscape:current-layer="layer1"
     showgrid="false"
     inkscape:window-width="1853"
     inkscape:window-height="1025"
     inkscape:window-x="67"
     inkscape:window-y="27"
     inkscape:window-maximized="1" />
  <metadata
     id="metadata2964">
    <rdf:RDF>
      <cc:Work
         rdf:about="">
        <dc:format>image/svg+xml</dc:format>
        <dc:type
           rdf:resource="http://purl.org/dc/dcmitype/StillImage" />
        <dc:title></dc:title>
      </cc:Work>
    </rdf:RDF>
  </metadata>
  <g
     inkscape:label="Layer 1"
     inkscape:groupmode="layer"
     id="layer1"
     transform="translate(-47.175417,-105.76093)">
    <g
       transform="matrix(0.35277777,0,0,-0.35277777,16.966316,220.13171)"
       id="g1884">
      <g
         id="g678"
         transform="translate(91.4711,198.3591)">
        <path
           d="m 0,0 c 0,0 10.015,-46.365 20.03,-69.734 10.015,-23.368 20.03,-35.979 20.03,-35.979 l 22.255,-5.935 c 0,0 15.208,63.057 17.804,74.556 2.597,11.498 3.71,37.834 3.71,37.834 z"
           style="fill:#b47f3f;fill-opacity:1;fill-rule:nonzero;stroke:none"
           id="path680"
           inkscape:connector-curvature="0" />
      </g>
      <g
         id="g682"
         transform="translate(174.7434,198.1737)">
        <path
           d="m 0,0 c 0,-3.483 -18.6,-6.306 -41.543,-6.306 -22.944,0 -41.544,2.823 -41.544,6.306 0,3.483 18.6,6.306 41.544,6.306 C -18.6,6.306 0,3.483 0,0"
           style="fill:#a15f0e;fill-opacity:1;fill-rule:nonzero;stroke:none"
           id="path684"
           inkscape:connector-curvature="0" />
      </g>
      <g
         id="g686"
         transform="translate(104.8456,202.7802)">
        <path
           d="M 0,0 -10.813,35.231 -13.01,34.557 -2.296,-0.351 0.443,-9.277 c 0.804,-0.111 1.642,-0.215 2.501,-0.316 z"
           style="fill:#787674;fill-opacity:1;fill-rule:nonzero;stroke:none"
           id="path688"
           inkscape:connector-curvature="0" />
      </g>
      <g
         id="g690"
         transform="translate(93.9011,234.8731)">
        <path
           d="m 0,0 11.93,-5.3 -20.199,31.893 1.17,-37.733 6.903,11.08 0.009,-0.021 0.092,0.04 0.099,0.019 z"
           style="fill:#aba9a8;fill-opacity:1;fill-rule:nonzero;stroke:none"
           id="path692"
           inkscape:connector-curvature="0" />
      </g>
      <g
         id="g694"
         transform="translate(117.2567,203.9974)">
        <path
           d="m 0,0 -9.167,53.027 -2.264,-0.391 9.126,-52.794 1.983,-11.469 c 0.773,-0.05 1.56,-0.096 2.356,-0.139 z"
           style="fill:#787674;fill-opacity:1;fill-rule:nonzero;stroke:none"
           id="path696"
           inkscape:connector-curvature="0" />
      </g>
      <g
         id="g698"
         transform="translate(107.5633,253.9281)">
        <path
           d="m 0,0 11.165,-6.764 -16.01,34.189 -3.604,-37.58 8.247,10.12 0.007,-0.021 0.096,0.027 0.1,0.007 z"
           style="fill:#aba9a8;fill-opacity:1;fill-rule:nonzero;stroke:none"
           id="path700"
           inkscape:connector-curvature="0" />
      </g>
      <g
         id="g702"
         transform="translate(128.7196,204.4423)">
        <path
           d="m 0,0 -1.313,39.38 -2.297,-0.077 1.312,-39.351 0.415,-12.453 c 0.76,-0.017 1.528,-0.032 2.301,-0.043 z"
           style="fill:#787674;fill-opacity:1;fill-rule:nonzero;stroke:none"
           id="path704"
           inkscape:connector-curvature="0" />
      </g>
      <g
         id="g706"
         transform="translate(126.4596,240.8274)">
        <path
           d="M 0,0 10.13,-8.234 -1.03,27.83 -9.764,-8.897 l 9.559,8.89 0.004,-0.022 0.099,0.014 0.1,-0.007 z"
           style="fill:#aba9a8;fill-opacity:1;fill-rule:nonzero;stroke:none"
           id="path708"
           inkscape:connector-curvature="0" />
      </g>
      <g
         id="g710"
         transform="translate(166.5831,188.5297)">
        <path
           d="m 0,0 c 0,0 -37.717,-13.725 -44.14,-68.435 -1.731,-14.746 0.996,-30.601 0.996,-30.601 0,0 -3.895,-14.836 0.556,-15.949 4.452,-1.113 18.268,-3.895 20.123,-1.113 1.855,2.782 -1.205,14.651 -0.093,24.295 1.113,9.644 4.304,30.054 7.165,40.245 C -12.426,-40.987 0,-22.626 0,-22.626 Z"
           style="fill:#f6cdb8;fill-opacity:1;fill-rule:nonzero;stroke:none"
           id="path712"
           inkscape:connector-curvature="0" />
      </g>
      <g
         id="g714"
         transform="translate(121.3991,103.2183)">
        <path
           d="m 0,0 c 0,0 6.12,0.742 12.24,0.742 6.121,0 11.685,-0.927 11.685,-0.927 l -0.742,-13.91 -22.441,0.742 z"
           style="fill:#a15f0e;fill-opacity:1;fill-rule:nonzero;stroke:none"
           id="path716"
           inkscape:connector-curvature="0" />
      </g>
      <g
         id="g718"
         transform="translate(272.4817,103.7737)">
        <path
           d="M 0,0 C 0,0 0,18.546 -4.822,37.463 -9.644,56.38 -25.594,87.538 -25.594,87.538 l -36.169,-1.773 -36.169,1.773 c 0,0 -15.95,-31.158 -20.772,-50.075 C -123.526,18.546 -123.526,0 -123.526,0 c 0,0 17.063,-7.418 22.256,-9.273 4.342,-1.551 29.941,-2.064 38.213,-2.191 v -0.035 c 0,0 0.476,0.005 1.294,0.017 0.818,-0.012 1.294,-0.017 1.294,-0.017 v 0.035 c 8.272,0.127 33.871,0.64 38.214,2.191 C -17.062,-7.418 0,0 0,0"
           style="fill:#f7d1bd;fill-opacity:1;fill-rule:nonzero;stroke:none"
           id="path720"
           inkscape:connector-curvature="0" />
      </g>
      <g
         id="g722"
         transform="translate(324.9055,143.7098)">
        <path
           d="m 0,0 c 0,0 10.015,5.811 13.971,5.935 3.957,0.123 3.091,-21.019 3.091,-21.019 0,0 -8.778,-4.08 -11.745,-3.957 C 2.349,-18.917 0,0 0,0"
           style="fill:#f7d1bd;fill-opacity:1;fill-rule:nonzero;stroke:none"
           id="path724"
           inkscape:connector-curvature="0" />
      </g>
      <g
         id="g726"
         transform="translate(240.8296,183.5222)">
        <path
           d="m 0,0 c 0,0 32.27,-56.689 38.576,-64.293 6.306,-7.604 14.219,-10.448 25.346,-5.997 10.487,4.195 17.063,8.593 17.063,8.593 l -4.637,19.412 c 0,0 -12.24,-8.161 -19.226,0.494 -2.571,3.186 -5.935,17.063 -13.353,28.685 C 35.901,-0.779 24.481,4.451 24.481,4.451 Z"
           style="fill:#f7d1bd;fill-opacity:1;fill-rule:nonzero;stroke:none"
           id="path728"
           inkscape:connector-curvature="0" />
      </g>
      <g
         id="g730"
         transform="translate(279.0413,54.0709)">
        <path
           d="m 0,0 c -5.935,2.226 -12.055,-0.989 -16.135,1.113 -2.949,1.519 1.113,14.466 1.669,24.11 0.556,9.644 -1.669,20.401 -1.669,20.401 l -51.813,-1.415 -51.812,1.415 c 0,0 -2.226,-10.757 -1.669,-20.401 0.556,-9.644 4.618,-22.591 1.669,-24.11 -4.08,-2.102 -10.2,1.113 -16.135,-1.113 -5.935,-2.226 -5.008,-8.346 -5.008,-8.346 h 43.213 c 0,0 -1.917,16.877 4.08,26.521 3.419,5.499 14.962,6.806 22.393,7.062 v -0.014 c 0,0 1.128,0.06 2.943,0.068 0.112,0 0.219,0 0.326,0 0.108,0 0.215,0 0.326,0 1.816,-0.008 2.944,-0.068 2.944,-0.068 v 0.014 c 7.431,-0.256 18.974,-1.563 22.393,-7.062 5.996,-9.644 4.08,-26.521 4.08,-26.521 H 5.007 c 0,0 0.928,6.12 -5.007,8.346"
           style="fill:#f7d1bd;fill-opacity:1;fill-rule:nonzero;stroke:none"
           id="path732"
           inkscape:connector-curvature="0" />
      </g>
      <g
         id="g734"
         transform="translate(143.1461,54.0709)">
        <path
           d="m 0,0 c 5.935,2.226 12.055,-0.989 16.135,1.113 0.938,0.483 1.162,2.13 1.02,4.451 h 21.21 c -0.907,-7.306 -0.16,-13.91 -0.16,-13.91 H -5.007 c 0,0 -0.928,6.12 5.007,8.346"
           style="fill:#a15f0e;fill-opacity:1;fill-rule:nonzero;stroke:none"
           id="path736"
           inkscape:connector-curvature="0" />
      </g>
      <g
         id="g738"
         transform="translate(279.0413,54.0709)">
        <path
           d="m 0,0 c -5.935,2.226 -12.055,-0.989 -16.135,1.113 -0.938,0.483 -1.162,2.13 -1.02,4.451 h -21.21 c 0.907,-7.306 0.16,-13.91 0.16,-13.91 H 5.007 c 0,0 0.928,6.12 -5.007,8.346"
           style="fill:#a15f0e;fill-opacity:1;fill-rule:nonzero;stroke:none"
           id="path740"
           inkscape:connector-curvature="0" />
      </g>
      <g
         id="g742"
         transform="translate(319.9568,119.5604)">
        <path
           d="m 0,0 c 0,0 -2.626,5.578 -4.547,11.389 -1.922,5.81 -2.788,11.384 -2.788,11.384 L 6.104,26.436 12.445,4.897 Z"
           style="fill:#a15f0e;fill-opacity:1;fill-rule:nonzero;stroke:none"
           id="path744"
           inkscape:connector-curvature="0" />
      </g>
      <path
         d="m 257.397,143.506 h -8.902 v 47.187 h 8.902 z"
         style="fill:#b47f3f;fill-opacity:1;fill-rule:nonzero;stroke:none;stroke-width:1.28815854"
         id="path746"
         inkscape:connector-curvature="0" />
      <path
         d="m 164.04,131.72029 h 8.902 V 190.693 h -8.902 z"
         style="fill:#b47f3f;fill-opacity:1;fill-rule:nonzero;stroke:none;stroke-width:1.44007027"
         id="path756"
         inkscape:connector-curvature="0" />
      <g
         id="g766"
         transform="translate(258.6339,106.123)">
        <path
           d="m 0,0 c -11.786,-1.557 -41.954,-2.113 -47.915,-2.209 -5.961,0.096 -36.13,0.652 -47.915,2.209 -13.106,1.731 -14.582,2.102 -14.582,2.102 0,0 -0.525,-14.559 -0.37,-19.412 0.37,-11.622 1.351,-20.03 1.351,-20.03 0,0 29.064,-1.422 61.516,-1.422 30.976,0 61.515,1.422 61.515,1.422 0,0 0.96,8.391 1.731,19.659 C 15.95,-8.655 14.466,2.102 14.466,2.102 14.466,2.102 13.106,1.731 0,0"
           style="fill:#a15f0e;fill-opacity:1;fill-rule:nonzero;stroke:none"
           id="path768"
           inkscape:connector-curvature="0" />
      </g>
      <g
         id="g770"
         transform="translate(145.255,89.0604)">
        <path
           d="m 0,0 c 0,0 3.985,-2.274 5.935,2.844 8.902,23.368 14.289,97.338 14.289,97.338 l -5.514,0.747 c 0,0 -0.257,-21.146 -5.622,-54.873 C 3.895,13.415 0,0 0,0"
           style="fill:#787674;fill-opacity:1;fill-rule:nonzero;stroke:none"
           id="path772"
           inkscape:connector-curvature="0" />
      </g>
      <g
         id="g774"
         transform="translate(282.2184,245.5583)">
        <path
           d="M 0,0 C 2.875,1.762 9.44,3.512 15.617,2.333 19.976,1.501 23.823,-1.259 25.13,-5.471 28.468,-16.228 21.715,-22.366 12.204,-23.887 7.326,-24.666 4.405,-24.501 -0.649,-23.832 -1.049,-16.366 -1.211,-8.471 0,0"
           style="fill:#f4c3a8;fill-opacity:1;fill-rule:nonzero;stroke:none"
           id="path776"
           inkscape:connector-curvature="0" />
      </g>
      <g
         id="g778"
         transform="translate(140.0862,245.5583)">
        <path
           d="m 0,0 c -2.875,1.762 -9.44,3.512 -15.617,2.333 -4.359,-0.832 -8.206,-3.592 -9.513,-7.804 -3.338,-10.757 3.415,-16.895 12.926,-18.416 4.878,-0.779 7.799,-0.614 12.853,0.055 C 1.049,-16.366 1.211,-8.471 0,0"
           style="fill:#f4c3a8;fill-opacity:1;fill-rule:nonzero;stroke:none"
           id="path780"
           inkscape:connector-curvature="0" />
      </g>
      <g
         id="g782"
         transform="translate(288.0605,269.5763)">
        <path
           d="m 0,0 c -2.226,19.288 -11.87,30.044 -26.336,40.059 -14.466,10.015 -27.819,11.499 -33.754,13.353 -4.348,1.359 -27.702,1.855 -33.637,0 -5.935,-1.854 -19.288,-3.338 -33.754,-13.353 -14.466,-10.015 -24.11,-20.771 -26.335,-40.059 -2.226,-19.288 -1.593,-61.638 8.16,-77.894 6.08,-10.134 45.5,-11.385 69.881,-11.159 23.502,-0.226 61.534,1.025 67.615,11.159 C 1.593,-61.638 2.226,-19.288 0,0"
           style="fill:#f9dbcc;fill-opacity:1;fill-rule:nonzero;stroke:none"
           id="path784"
           inkscape:connector-curvature="0" />
      </g>
      <g
         id="g786"
         transform="translate(270.3179,238.6035)">
        <path
           d="m 0,0 c 0,-5.941 -4.816,-10.757 -10.757,-10.757 -5.941,0 -10.757,4.816 -10.757,10.757 0,5.941 4.816,10.757 10.757,10.757 C -4.816,10.757 0,5.941 0,0"
           style="fill:#211915;fill-opacity:1;fill-rule:nonzero;stroke:none"
           id="path788"
           inkscape:connector-curvature="0" />
      </g>
      <g
         id="g790"
         transform="translate(266.2995,240.7981)">
        <path
           d="m 0,0 c 0,-1.963 -1.591,-3.555 -3.555,-3.555 -1.963,0 -3.554,1.592 -3.554,3.555 0,1.963 1.591,3.555 3.554,3.555 C -1.591,3.555 0,1.963 0,0"
           style="fill:#ffffff;fill-opacity:1;fill-rule:nonzero;stroke:none"
           id="path792"
           inkscape:connector-curvature="0" />
      </g>
      <g
         id="g794"
         transform="translate(178.3291,238.6035)">
        <path
           d="m 0,0 c 0,-5.941 -4.816,-10.757 -10.757,-10.757 -5.941,0 -10.757,4.816 -10.757,10.757 0,5.941 4.816,10.757 10.757,10.757 C -4.816,10.757 0,5.941 0,0"
           style="fill:#211915;fill-opacity:1;fill-rule:nonzero;stroke:none"
           id="path796"
           inkscape:connector-curvature="0" />
      </g>
      <g
         id="g798"
         transform="translate(174.3108,240.7981)">
        <path
           d="m 0,0 c 0,-1.963 -1.591,-3.555 -3.555,-3.555 -1.963,0 -3.554,1.592 -3.554,3.555 0,1.963 1.591,3.555 3.554,3.555 C -1.591,3.555 0,1.963 0,0"
           style="fill:#ffffff;fill-opacity:1;fill-rule:nonzero;stroke:none"
           id="path800"
           inkscape:connector-curvature="0" />
      </g>
      <g
         id="g802"
         transform="translate(268.2161,254.8314)">
        <path
           d="m 0,0 h -31.528 c -3.381,0 -6.121,2.74 -6.121,6.12 0,3.38 2.74,6.12 6.121,6.12 H 0 C 3.38,12.24 6.12,9.5 6.12,6.12 6.12,2.74 3.38,0 0,0"
           style="fill:#000000;fill-opacity:1;fill-rule:nonzero;stroke:none"
           id="path804"
           inkscape:connector-curvature="0" />
      </g>
      <g
         id="g810"
         transform="matrix(1,0,0,0.93361243,236.9433,223.92911)">
        <path
           d="m 0,0 c -2.72,6.924 -25.717,35.609 -25.717,35.609 l -0.005,-0.023 -0.005,0.023 c 0,0 -22.998,-28.685 -25.718,-35.609 -2.72,-6.924 -2.529,-9.462 6.182,-10.88 7.551,-1.23 13.488,-1.683 17.252,-1.844 l 0.006,-0.073 c 0,0 0.796,-0.026 2.283,0.002 1.486,-0.028 2.282,-0.002 2.282,-0.002 l 0.006,0.073 c 3.764,0.161 9.701,0.614 17.252,1.844 C 2.53,-9.462 2.72,-6.924 0,0"
           style="fill:#f2a899;fill-opacity:1;fill-rule:nonzero;stroke:none"
           id="path812"
           inkscape:connector-curvature="0" />
      </g>
      <path
         d="m 295.458,67.826 h -1.695 v 149.14 h 1.695 z"
         style="fill:#787674;fill-opacity:1;fill-rule:nonzero;stroke:none"
         id="path838"
         inkscape:connector-curvature="0" />
      <g
         id="g840"
         transform="translate(343.2505,179.2294)">
        <path
           d="m 0,0 c -7.683,15.592 -22.96,23.091 -37.511,34.121 -14.01,10.621 -19.659,24.631 -19.659,24.631 0,0 -1.356,-20.789 18.077,-33.443 19.434,-12.655 30.506,-21.694 34.8,-33.896 2.412,-6.856 3.112,-15.709 3.263,-22.15 h -0.1 c 0,0 0.1,-1.656 0.127,-4.291 -0.027,-2.636 -0.127,-4.291 -0.127,-4.291 h 0.1 c -0.151,-6.442 -0.851,-15.294 -3.263,-22.15 -4.294,-12.203 -15.366,-21.241 -34.8,-33.896 -19.433,-12.654 -18.077,-33.443 -18.077,-33.443 0,0 5.649,14.01 19.659,24.63 14.551,11.031 29.828,18.53 37.511,34.122 5.678,11.523 5.925,27.48 5.667,35.028 C 5.925,-27.48 5.678,-11.523 0,0"
           style="fill:#b47f3f;fill-opacity:1;fill-rule:nonzero;stroke:none"
           id="path842"
           inkscape:connector-curvature="0" />
      </g>
      <g
         id="g844"
         transform="translate(337.9973,151.5017)">
        <path
           d="m 0,0 -0.13,-25.49 9.238,-0.777 c 3.72,-0.312 6.851,2.673 6.789,6.475 l -0.219,13.406 c -0.05,3.055 -2.432,5.583 -5.425,5.756 z"
           style="fill:#f7d1bd;fill-opacity:1;fill-rule:nonzero;stroke:none"
           id="path846"
           inkscape:connector-curvature="0" />
      </g>
      <g
         id="g1792"
         transform="matrix(1.8702672,0,0,1.8702672,-237.55049,-142.21142)">
        <g
           transform="translate(269.7617,144.4515)"
           id="g748">
          <path
             inkscape:connector-curvature="0"
             id="path750"
             style="fill:#a15f0e;fill-opacity:1;fill-rule:nonzero;stroke:none"
             d="m 0,0 c 0,-15.979 -12.953,-28.932 -28.932,-28.932 -15.979,0 -28.932,12.953 -28.932,28.932 0,15.979 12.953,28.932 28.932,28.932 C -12.953,28.932 0,15.979 0,0" />
        </g>
        <g
           transform="translate(260.6122,144.4515)"
           id="g752">
          <path
             inkscape:connector-curvature="0"
             id="path754"
             style="fill:#b47f3f;fill-opacity:1;fill-rule:nonzero;stroke:none"
             d="m 0,0 c 0,-10.926 -8.857,-19.783 -19.783,-19.783 -10.925,0 -19.782,8.857 -19.782,19.783 0,10.926 8.857,19.783 19.782,19.783 C -8.857,19.783 0,10.926 0,0" />
        </g>
      </g>
      <g
         id="g58"
         transform="translate(277.8127,174.2867)"
         style="fill:#000000;fill-opacity:1">
        <path
           d="m 0,0 c -1.653,-0.414 -2.997,-1.192 -4.037,-2.12 -1.049,-0.914 -1.782,-2.021 -2.152,-3.125 -0.388,-1.105 -0.308,-2.206 -0.022,-3.021 0.272,-0.836 0.76,-1.382 1.118,-1.808 0.405,-0.397 0.724,-0.671 0.965,-0.828 0.228,-0.168 0.346,-0.255 0.346,-0.255 0,0 -0.096,0.11 -0.283,0.323 -0.198,0.2 -0.449,0.535 -0.74,0.979 -0.246,0.468 -0.566,1.048 -0.632,1.773 -0.081,0.712 0.044,1.53 0.515,2.283 0.878,1.506 3.025,2.812 5.356,2.861 2.538,0.022 3.924,-1.691 4.239,-4.086 0.155,-1.181 0.126,-2.456 -0.51,-3.462 -0.434,-0.686 -1.115,-1.185 -1.844,-1.542 -3.101,-1.519 -7.121,-0.889 -10.167,0.486 -1.507,0.68 -2.886,1.786 -3.559,3.297 -0.356,0.8 -0.501,1.683 -0.512,2.559 -0.043,3.408 1.562,6.969 2.404,10.244 l 0.226,1.034 c 0.067,0.307 0.129,0.616 0.189,0.925 2.854,14.887 -3.849,30.445 -17.586,37.344 -12.869,6.464 -30.615,2.662 -39.923,-8.261 -0.169,-0.199 -0.325,-0.409 -0.485,-0.615 -0.16,0.206 -0.317,0.416 -0.485,0.615 -9.309,10.923 -27.055,14.725 -39.923,8.261 -13.737,-6.899 -20.441,-22.457 -17.586,-37.344 0.059,-0.309 0.122,-0.618 0.189,-0.925 l 0.225,-1.034 c 0.842,-3.275 2.447,-6.836 2.404,-10.244 -0.011,-0.876 -0.156,-1.759 -0.512,-2.559 -0.672,-1.511 -2.051,-2.617 -3.558,-3.297 -3.047,-1.375 -7.067,-2.005 -10.168,-0.486 -0.728,0.357 -1.409,0.856 -1.843,1.542 -0.637,1.006 -0.666,2.281 -0.511,3.462 0.315,2.395 1.701,4.108 4.239,4.086 2.332,-0.049 4.478,-1.355 5.356,-2.861 0.471,-0.753 0.597,-1.571 0.515,-2.283 -0.065,-0.725 -0.386,-1.305 -0.631,-1.773 -0.292,-0.444 -0.542,-0.779 -0.74,-0.979 -0.187,-0.213 -0.284,-0.323 -0.284,-0.323 0,0 0.118,0.087 0.346,0.255 0.241,0.157 0.561,0.431 0.965,0.828 0.358,0.426 0.847,0.972 1.118,1.808 0.287,0.815 0.366,1.916 -0.022,3.021 -0.369,1.104 -1.102,2.211 -2.151,3.125 -1.04,0.928 -2.385,1.706 -4.038,2.12 -4.857,1.217 -9.14,-2.764 -10.071,-7.395 -0.956,-4.751 1.485,-9.435 5.602,-11.787 2.314,-1.362 4.832,-2.048 7.417,-2.394 2.586,-0.294 5.268,-0.23 8.011,0.393 4.537,1.031 8.564,3.475 11.287,7.306 5.275,7.422 2.598,16.262 3.032,24.658 0.198,3.808 1.504,7.86 4.663,9.996 3.678,2.487 10.085,2.379 13.792,-0.056 5.418,-3.558 8.987,-7.62 16.029,-7.628 3.156,-0.003 5.562,0.818 7.333,2.159 1.771,-1.341 4.177,-2.162 7.333,-2.159 7.041,0.008 10.61,4.07 16.028,7.628 3.707,2.435 10.114,2.543 13.793,0.056 3.158,-2.136 4.465,-6.188 4.662,-9.996 0.435,-8.396 -2.243,-17.236 3.033,-24.658 2.723,-3.831 6.75,-6.275 11.287,-7.306 2.742,-0.623 5.424,-0.687 8.011,-0.393 2.585,0.346 5.103,1.032 7.416,2.394 4.117,2.352 6.559,7.036 5.603,11.787 C 9.14,-2.764 4.858,1.217 0,0"
           style="fill:#000000;fill-opacity:1;fill-rule:nonzero;stroke:none"
           id="path60"
           inkscape:connector-curvature="0" />
      </g>
      <g
         id="g806"
         transform="translate(187.3548,254.8314)">
        <path
           d="m 0,0 h -31.528 c -3.381,0 -6.121,2.74 -6.121,6.12 0,3.38 2.74,6.12 6.121,6.12 H 0 C 3.38,12.24 6.12,9.5 6.12,6.12 6.12,2.74 3.38,0 0,0"
           style="fill:#000000;fill-opacity:1;fill-rule:nonzero;stroke:none"
           id="path808"
           inkscape:connector-curvature="0" />
      </g>
    </g>
  </g>
</svg>
