<?xml version="1.0" encoding="UTF-8" standalone="no"?>
<!-- Created with Inkscape (http://www.inkscape.org/) -->

<svg
   xmlns:dc="http://purl.org/dc/elements/1.1/"
   xmlns:cc="http://creativecommons.org/ns#"
   xmlns:rdf="http://www.w3.org/1999/02/22-rdf-syntax-ns#"
   xmlns:svg="http://www.w3.org/2000/svg"
   xmlns="http://www.w3.org/2000/svg"
   xmlns:sodipodi="http://sodipodi.sourceforge.net/DTD/sodipodi-0.dtd"
   xmlns:inkscape="http://www.inkscape.org/namespaces/inkscape"
   width="109.61114mm"
   height="101.54951mm"
   viewBox="0 0 109.61114 101.54951"
   version="1.1"
   id="svg2707"
   inkscape:version="0.92.2 (5c3e80d, 2017-08-06)"
   sodipodi:docname="Char-Giant.svg">
  <defs
     id="defs2701" />
  <sodipodi:namedview
     id="base"
     pagecolor="#ffffff"
     bordercolor="#666666"
     borderopacity="1.0"
     inkscape:pageopacity="0.0"
     inkscape:pageshadow="2"
     inkscape:zoom="0.7"
     inkscape:cx="343.07939"
     inkscape:cy="371.58103"
     inkscape:document-units="mm"
     inkscape:current-layer="layer1"
     showgrid="false"
     inkscape:window-width="1853"
     inkscape:window-height="1025"
     inkscape:window-x="67"
     inkscape:window-y="27"
     inkscape:window-maximized="1" />
  <metadata
     id="metadata2704">
    <rdf:RDF>
      <cc:Work
         rdf:about="">
        <dc:format>image/svg+xml</dc:format>
        <dc:type
           rdf:resource="http://purl.org/dc/dcmitype/StillImage" />
        <dc:title></dc:title>
      </cc:Work>
    </rdf:RDF>
  </metadata>
  <g
     inkscape:label="Layer 1"
     inkscape:groupmode="layer"
     id="layer1"
     transform="translate(-60.099194,-45.141907)">
    <g
       id="g1453"
       transform="translate(94.305062,-68.450438)">
      <g
         id="g1610">
        <g
           transform="matrix(0.35277777,0,0,-0.35277777,16.586634,169.84467)"
           id="g158">
          <path
             inkscape:connector-curvature="0"
             id="path160"
             style="fill:#f6cdb8;fill-opacity:1;fill-rule:nonzero;stroke:none"
             d="m 0,0 -46.736,-25.223 6.676,-22.008 54.65,22.75 z" />
        </g>
        <g
           transform="matrix(0.35277777,0,0,-0.35277777,-15.079898,136.82598)"
           id="g170">
          <path
             inkscape:connector-curvature="0"
             id="path172"
             style="fill:#9f978d;fill-opacity:1;fill-rule:nonzero;stroke:none"
             d="m 0,0 c 0,0 -16.692,-6.677 -31.899,-3.709 -15.208,2.967 -21.514,10.015 -21.514,10.015 0,0 -3.709,-16.321 4.822,-44.14 8.531,-27.819 27.448,-39.689 27.448,-39.689 0,0 1.299,15.579 12.983,24.852 11.449,9.087 19.659,7.418 19.659,7.418 z" />
        </g>
        <g
           transform="matrix(0.35277777,0,0,-0.35277777,-33.922816,134.60147)"
           id="g174">
          <path
             inkscape:connector-curvature="0"
             id="path176"
             style="fill:#c3beb8;fill-opacity:1;fill-rule:nonzero;stroke:none"
             d="m 0,0 c 0,0 3.717,-4.13 12.28,-7.399 -0.336,-23.343 8.031,-47.339 23.243,-64.587 -2.797,-6.381 -3.253,-11.843 -3.253,-11.843 0,0 -18.917,11.87 -27.448,39.689 C -3.709,-16.321 0,0 0,0" />
        </g>
        <g
           transform="matrix(0.35277777,0,0,-0.35277777,-14.520323,136.7781)"
           id="g178">
          <path
             inkscape:connector-curvature="0"
             id="path180"
             style="fill:#9f978d;fill-opacity:1;fill-rule:nonzero;stroke:none"
             d="m 0,0 c 0,0 17.703,3.129 29.06,13.67 11.357,10.541 12.998,19.854 12.998,19.854 0,0 11.758,-11.911 19.179,-40.047 7.421,-28.136 -2.393,-48.196 -2.393,-48.196 0,0 -9.318,12.552 -24.136,14.269 -14.52,1.684 -20.615,-4.063 -20.615,-4.063 z" />
        </g>
        <g
           transform="matrix(0.35277777,0,0,-0.35277777,0.31677004,124.95169)"
           id="g182">
          <path
             inkscape:connector-curvature="0"
             id="path184"
             style="fill:#c3beb8;fill-opacity:1;fill-rule:nonzero;stroke:none"
             d="m 0,0 c 0,0 -0.98,-5.469 -6.532,-12.762 12.595,-19.657 18.139,-44.457 14.31,-67.134 5.74,-3.947 9.008,-8.347 9.008,-8.347 0,0 9.814,20.06 2.393,48.196 C 11.758,-11.911 0,0 0,0" />
        </g>
        <g
           transform="matrix(0.35277777,0,0,-0.35277777,-8.188314,150.65282)"
           id="g186">
          <path
             inkscape:connector-curvature="0"
             id="path188"
             style="fill:#a97c3f;fill-opacity:1;fill-rule:nonzero;stroke:none"
             d="m 0,0 40.06,-129.329 c 0,0 -1.022,-4.264 -8.686,-6.274 -5.657,-1.484 -9.366,0.834 -9.366,0.834 L -15.331,-4.698 Z" />
        </g>
        <g
           transform="matrix(0.35277777,0,0,-0.35277777,-6.966609,153.48799)"
           id="g190">
          <path
             inkscape:connector-curvature="0"
             id="path192"
             style="fill:#a15f0e;fill-opacity:1;fill-rule:nonzero;stroke:none"
             d="m 0,0 c 0,0 -2.283,-2.854 -9.047,-4.594 -6.723,-1.729 -8.588,-0.633 -8.588,-0.633 l -17.826,50.844 c 0,0 0.557,5.658 9.51,8.061 10.485,2.814 13.618,-1.919 13.618,-1.919 z" />
        </g>
        <g
           transform="matrix(0.35277777,0,0,-0.35277777,6.772603,174.83891)"
           id="g194">
          <path
             inkscape:connector-curvature="0"
             id="path196"
             style="fill:#a15f0e;fill-opacity:1;fill-rule:nonzero;stroke:none"
             d="m 0,0 -16.321,-8.346 c 0,0 3.895,-8.346 6.121,-14.095 2.225,-5.749 2.967,-9.087 2.967,-9.087 l 16.135,6.491 c 0,0 -1.484,7.418 -3.895,14.095 C 2.596,-4.266 0,0 0,0" />
        </g>
        <g
           transform="matrix(0.35277777,0,0,-0.35277777,-2.452537,179.74591)"
           id="g198">
          <path
             inkscape:connector-curvature="0"
             id="path200"
             style="fill:#f6cdb8;fill-opacity:1;fill-rule:nonzero;stroke:none"
             d="m 0,0 9.249,-23.363 -8.437,-3.921 c -3.398,-1.579 -7.42,0.076 -8.723,3.589 l -4.593,12.386 c -1.047,2.823 0.295,5.971 3.057,7.17 z" />
        </g>
        <g
           transform="matrix(0.35277777,0,0,-0.35277777,68.142908,168.62335)"
           id="g202">
          <path
             inkscape:connector-curvature="0"
             id="path204"
             style="fill:#f6cdb8;fill-opacity:1;fill-rule:nonzero;stroke:none"
             d="m 0,0 c 0,0 11.87,-4.266 13.353,-9.273 1.484,-5.008 5.935,-34.125 6.491,-48.962 0.557,-14.837 -1.298,-29.859 -1.298,-29.859 0,0 3.895,-14.837 -0.556,-15.95 -4.451,-1.113 -18.268,-3.895 -20.123,-1.113 -1.854,2.782 1.206,14.652 0.093,24.296 -1.113,9.644 -3.709,28.19 -5.749,38.576 -2.04,10.386 -4.637,20.401 -4.637,20.401 z" />
        </g>
        <g
           transform="matrix(0.35277777,0,0,-0.35277777,75.405268,194.85947)"
           id="g206">
          <path
             inkscape:connector-curvature="0"
             id="path208"
             style="fill:#a15f0e;fill-opacity:1;fill-rule:nonzero;stroke:none"
             d="m 0,0 c 0,0 -6.12,0.742 -12.24,0.742 -6.121,0 -11.685,-0.927 -11.685,-0.927 l 0.742,-13.91 22.441,0.742 z" />
        </g>
        <g
           transform="matrix(0.35277777,0,0,-0.35277777,16.499356,133.46739)"
           id="g210">
          <path
             inkscape:connector-curvature="0"
             id="path212"
             style="fill:#f6cdb8;fill-opacity:1;fill-rule:nonzero;stroke:none"
             d="m 0,0 c 5.193,20.277 30.91,38.329 43.769,43.027 11.209,4.096 25.607,8.378 29.119,9.41 v 0.234 c 0,0 0.142,-0.041 0.401,-0.117 0.259,0.076 0.401,0.117 0.401,0.117 v -0.234 c 3.512,-1.032 17.911,-5.314 29.119,-9.41 12.859,-4.698 38.576,-22.75 43.769,-43.027 5.193,-20.277 -6.429,-53.908 -6.429,-53.908 -6.915,-9.449 -59.363,-13.743 -66.459,-14.282 v -0.06 c 0,0 -0.139,0.01 -0.401,0.029 -0.262,-0.019 -0.401,-0.029 -0.401,-0.029 v 0.06 c -7.095,0.539 -59.544,4.833 -66.459,14.282 0,0 -11.622,33.631 -6.429,53.908" />
        </g>
        <g
           transform="matrix(0.35277777,0,0,-0.35277777,51.851678,136.13915)"
           id="g214">
          <path
             inkscape:connector-curvature="0"
             id="path216"
             style="fill:#c0471b;fill-opacity:1;fill-rule:nonzero;stroke:none"
             d="m 0,0 h 31.529 c 3.38,0 6.12,2.74 6.12,6.12 0,3.38 -2.74,6.12 -6.12,6.12 H 0 C -3.38,12.24 -6.12,9.5 -6.12,6.12 -6.12,2.74 -3.38,0 0,0" />
        </g>
        <g
           transform="matrix(0.35277777,0,0,-0.35277777,18.745702,212.19758)"
           id="g218">
          <path
             inkscape:connector-curvature="0"
             id="path220"
             style="fill:#877d70;fill-opacity:1;fill-rule:nonzero;stroke:none"
             d="m 0,0 c 5.935,2.226 12.055,-0.989 16.135,1.113 2.949,1.519 -1.113,14.466 -1.669,24.11 -0.556,9.644 1.669,20.401 1.669,20.401 l 51.813,-1.415 51.812,1.415 c 0,0 2.226,-10.757 1.669,-20.401 -0.556,-9.644 -4.618,-22.591 -1.669,-24.11 4.08,-2.102 10.2,1.113 16.135,-1.113 5.935,-2.226 5.008,-8.346 5.008,-8.346 H 97.69 c 0,0 1.917,16.877 -4.08,26.521 -3.419,5.499 -14.962,6.806 -22.393,7.062 v -0.014 c 0,0 -1.128,0.06 -2.943,0.068 -0.112,0 -0.219,0 -0.326,0 -0.108,0 -0.215,0 -0.326,0 -1.816,-0.008 -2.944,-0.068 -2.944,-0.068 v 0.014 C 57.247,24.981 45.704,23.674 42.285,18.175 36.289,8.531 38.205,-8.346 38.205,-8.346 H -5.007 c 0,0 -0.928,6.12 5.007,8.346" />
        </g>
        <g
           transform="matrix(0.35277777,0,0,-0.35277777,60.990318,207.61771)"
           id="g222">
          <path
             inkscape:connector-curvature="0"
             id="path224"
             style="fill:#b47f3f;fill-opacity:1;fill-rule:nonzero;stroke:none"
             d="m 0,0 h -23.797 c 0.778,-2.402 1.272,-4.95 1.578,-7.418 H -1.008 C -0.883,-5.366 -0.471,-2.789 0,0" />
        </g>
        <g
           transform="matrix(0.35277777,0,0,-0.35277777,66.686508,212.19758)"
           id="g226">
          <path
             inkscape:connector-curvature="0"
             id="path228"
             style="fill:#a15f0e;fill-opacity:1;fill-rule:nonzero;stroke:none"
             d="m 0,0 c -5.935,2.226 -12.055,-0.989 -16.135,1.113 -0.938,0.483 -1.162,2.13 -1.02,4.451 h -21.21 c 0.907,-7.306 0.16,-13.91 0.16,-13.91 H 5.007 c 0,0 0.928,6.12 -5.007,8.346" />
        </g>
        <g
           transform="matrix(0.35277777,0,0,-0.35277777,24.441901,207.61771)"
           id="g230">
          <path
             inkscape:connector-curvature="0"
             id="path232"
             style="fill:#b47f3f;fill-opacity:1;fill-rule:nonzero;stroke:none"
             d="M 0,0 H 23.797 C 23.019,-2.402 22.525,-4.95 22.219,-7.418 H 1.008 C 0.883,-5.366 0.471,-2.789 0,0" />
        </g>
        <g
           transform="matrix(0.35277777,0,0,-0.35277777,18.745702,212.19758)"
           id="g234">
          <path
             inkscape:connector-curvature="0"
             id="path236"
             style="fill:#a15f0e;fill-opacity:1;fill-rule:nonzero;stroke:none"
             d="m 0,0 c 5.935,2.226 12.055,-0.989 16.135,1.113 0.938,0.483 1.162,2.13 1.02,4.451 h 21.21 c -0.907,-7.306 -0.16,-13.91 -0.16,-13.91 H -5.007 c 0,0 -0.928,6.12 5.007,8.346" />
        </g>
        <g
           transform="matrix(0.35277777,0,0,-0.35277777,63.868308,183.80236)"
           id="g238">
          <path
             inkscape:connector-curvature="0"
             id="path240"
             style="fill:#a15f0e;fill-opacity:1;fill-rule:nonzero;stroke:none"
             d="m 0,0 c 0,0 1.731,-19.535 1.731,-27.696 0,-8.16 -0.742,-16.32 -0.742,-16.32 l -123.394,-0.495 c 0,0 -0.989,19.288 0.248,29.179 1.236,9.892 2.72,18.299 2.72,18.299 z" />
        </g>
        <g
           transform="matrix(0.35277777,0,0,-0.35277777,30.718805,185.89602)"
           id="g242">
          <path
             inkscape:connector-curvature="0"
             id="path244"
             style="fill:#0067a5;fill-opacity:1;fill-rule:nonzero;stroke:none"
             d="M 0,0 34.008,-9.101 68.016,0 68.511,-54.155 H 35.114 32.902 -0.495 Z" />
        </g>
        <g
           transform="matrix(0.35277777,0,0,-0.35277777,33.957445,185.47057)"
           id="g246">
          <path
             inkscape:connector-curvature="0"
             id="path248"
             style="fill:#3386b7;fill-opacity:1;fill-rule:nonzero;stroke:none"
             d="m 0,0 c 0.025,0.658 2.272,0.66 2.272,0 0,-7.14 -0.043,-37.309 -0.046,-43.769 H 47.43 C 47.427,-37.309 47.384,-7.14 47.384,0 c 0,0.66 2.246,0.658 2.272,0 0.278,-7.279 0,-46.18 0,-46.18 0,0 -9.559,-0.137 -13.489,-0.139 -3.768,-10e-4 -18.91,-10e-4 -22.678,0 C 9.558,-46.317 0,-46.18 0,-46.18 0,-46.18 -0.278,-7.279 0,0" />
        </g>
        <g
           transform="matrix(0.35277777,0,0,-0.35277777,18.822045,138.18904)"
           id="g250">
          <path
             inkscape:connector-curvature="0"
             id="path252"
             style="fill:#f4c3a8;fill-opacity:1;fill-rule:nonzero;stroke:none"
             d="m 0,0 c -2.875,1.762 -9.44,3.512 -15.617,2.333 -4.359,-0.832 -8.948,-3.777 -10.255,-7.99 -3.338,-10.756 4.157,-16.709 13.668,-18.23 4.878,-0.779 7.799,-0.614 12.853,0.055 C 1.049,-16.366 1.211,-8.471 0,0" />
        </g>
        <g
           transform="matrix(0.35277777,0,0,-0.35277777,65.886268,138.18904)"
           id="g254">
          <path
             inkscape:connector-curvature="0"
             id="path256"
             style="fill:#f4c3a8;fill-opacity:1;fill-rule:nonzero;stroke:none"
             d="m 0,0 c 2.875,1.762 9.44,3.512 15.617,2.333 4.359,-0.832 8.948,-3.777 10.255,-7.99 3.338,-10.756 -4.157,-16.709 -13.668,-18.23 -4.878,-0.779 -7.799,-0.614 -12.853,0.055 C -1.049,-16.366 -1.211,-8.471 0,0" />
        </g>
        <g
           transform="matrix(0.35277777,0,0,-0.35277777,22.584137,141.86399)"
           id="g258">
          <path
             inkscape:connector-curvature="0"
             id="path260"
             style="fill:#211915;fill-opacity:1;fill-rule:nonzero;stroke:none"
             d="m 0,0 c 0,-5.941 4.816,-10.757 10.757,-10.757 5.941,0 10.757,4.816 10.757,10.757 0,5.941 -4.816,10.757 -10.757,10.757 C 4.816,10.757 0,5.941 0,0" />
        </g>
        <g
           transform="matrix(0.35277777,0,0,-0.35277777,24.001703,141.08979)"
           id="g262">
          <path
             inkscape:connector-curvature="0"
             id="path264"
             style="fill:#ffffff;fill-opacity:1;fill-rule:nonzero;stroke:none"
             d="m 0,0 c 0,-1.963 1.591,-3.555 3.555,-3.555 1.963,0 3.554,1.592 3.554,3.555 0,1.963 -1.591,3.555 -3.554,3.555 C 1.591,3.555 0,1.963 0,0" />
        </g>
        <g
           transform="matrix(0.35277777,0,0,-0.35277777,55.035738,141.86399)"
           id="g266">
          <path
             inkscape:connector-curvature="0"
             id="path268"
             style="fill:#211915;fill-opacity:1;fill-rule:nonzero;stroke:none"
             d="m 0,0 c 0,-5.941 4.816,-10.757 10.757,-10.757 5.941,0 10.757,4.816 10.757,10.757 0,5.941 -4.816,10.757 -10.757,10.757 C 4.816,10.757 0,5.941 0,0" />
        </g>
        <g
           transform="matrix(0.35277777,0,0,-0.35277777,56.453348,141.08979)"
           id="g270">
          <path
             inkscape:connector-curvature="0"
             id="path272"
             style="fill:#ffffff;fill-opacity:1;fill-rule:nonzero;stroke:none"
             d="m 0,0 c 0,-1.963 1.591,-3.555 3.555,-3.555 1.963,0 3.554,1.592 3.554,3.555 0,1.963 -1.591,3.555 -3.554,3.555 C 1.591,3.555 0,1.963 0,0" />
        </g>
        <g
           transform="matrix(0.35277777,0,0,-0.35277777,23.325606,136.13915)"
           id="g274">
          <path
             inkscape:connector-curvature="0"
             id="path276"
             style="fill:#c0471b;fill-opacity:1;fill-rule:nonzero;stroke:none"
             d="m 0,0 h 31.529 c 3.38,0 6.12,2.74 6.12,6.12 0,3.38 -2.74,6.12 -6.12,6.12 H 0 C -3.38,12.24 -6.12,9.5 -6.12,6.12 -6.12,2.74 -3.38,0 0,0" />
        </g>
        <g
           transform="matrix(0.35277777,0,0,-0.35277777,61.382708,136.13915)"
           id="g278">
          <path
             inkscape:connector-curvature="0"
             id="path280"
             style="fill:#c0471b;fill-opacity:1;fill-rule:nonzero;stroke:none"
             d="m 0,0 h -31.529 c -3.38,0 -6.12,2.74 -6.12,6.12 0,3.38 2.74,6.12 6.12,6.12 H 0 C 3.38,12.24 6.12,9.5 6.12,6.12 6.12,2.74 3.38,0 0,0" />
        </g>
        <g
           transform="matrix(0.35277777,0,0,-0.35277777,14.231276,141.84202)"
           id="g282">
          <path
             inkscape:connector-curvature="0"
             id="path284"
             style="fill:#c0471b;fill-opacity:1;fill-rule:nonzero;stroke:none"
             d="m 0,0 c 1.731,11.375 3.462,19.783 6.677,26.706 3.214,6.924 6.676,1.237 6.676,1.237 0,0 -3.709,-11.128 -3.215,-25.717 0.495,-14.59 4.452,-23.245 12.117,-24.976 7.666,-1.731 17.31,1.484 17.31,1.484 l 40.554,-1.979 h 0.358 l 40.554,1.979 c 0,0 9.644,-3.215 17.31,-1.484 7.665,1.731 11.622,10.386 12.116,24.976 0.495,14.589 -3.214,25.717 -3.214,25.717 0,0 3.462,5.687 6.676,-1.237 3.215,-6.923 4.946,-15.331 6.677,-26.706 1.731,-11.375 3.87,-61.562 -2.473,-89.516 -6.676,-29.427 -14.342,-44.511 -14.342,-44.511 l -8.902,9.397 -11.375,-15.332 -9.397,8.655 -11.128,-13.848 -9.396,7.913 -13.217,-12.726 -0.068,-0.066 -0.068,0.066 -13.217,12.726 -9.396,-7.913 -11.128,13.848 -9.397,-8.655 -11.375,15.332 -8.902,-9.397 c 0,0 -7.666,15.084 -14.342,44.511 C -3.87,-61.562 -1.731,-11.375 0,0" />
        </g>
        <g
           transform="matrix(0.35277777,0,0,-0.35277777,26.444231,149.16981)"
           id="g286">
          <path
             inkscape:connector-curvature="0"
             id="path288"
             style="fill:#ae331b;fill-opacity:1;fill-rule:nonzero;stroke:none"
             d="m 0,0 c 5.44,7.666 11.128,13.601 15.826,14.59 3.299,0.694 19.758,0.17 29.273,-0.204 9.515,0.374 25.974,0.898 29.273,0.204 C 79.07,13.601 84.758,7.666 90.198,0 c 5.44,-7.666 8.16,-13.353 8.16,-13.353 L 76.35,-4.946 67.448,-18.299 54.837,-7.418 45.5,-23.739 H 44.698 L 35.361,-7.418 22.75,-18.299 13.848,-4.946 -8.16,-13.353 c 0,0 2.72,5.687 8.16,13.353" />
        </g>
        <g
           transform="matrix(0.35277777,0,0,-0.35277777,33.529175,144.93888)"
           id="g290">
          <path
             inkscape:connector-curvature="0"
             id="path292"
             style="fill:#f2a899;fill-opacity:1;fill-rule:nonzero;stroke:none"
             d="m 0,0 c 2.72,6.924 25.717,35.609 25.717,35.609 l 0.005,-0.023 0.005,0.023 c 0,0 22.998,-28.685 25.718,-35.609 2.72,-6.924 2.529,-9.462 -6.182,-10.88 -7.551,-1.23 -13.488,-1.683 -17.252,-1.844 l -0.006,-0.073 c 0,0 -0.797,-0.026 -2.283,0.002 -1.486,-0.028 -2.282,-0.002 -2.282,-0.002 l -0.006,0.073 C 19.67,-12.563 13.733,-12.11 6.182,-10.88 -2.53,-9.462 -2.72,-6.924 0,0" />
        </g>
        <g
           transform="matrix(0.35277777,0,0,-0.35277777,21.820761,120.73098)"
           id="g302">
          <path
             inkscape:connector-curvature="0"
             id="path304"
             style="fill:#9f978d;fill-opacity:1;fill-rule:nonzero;stroke:none"
             d="m 0,0 c 12.153,11.773 29.69,16.99 42.747,19.302 6.047,1.07 24.39,1.377 31.53,0.08 13.085,-2.375 30.912,-7.469 43.209,-19.382 17.805,-17.248 19.288,-34.867 19.288,-34.867 H 60.46 57.026 -19.288 c 0,0 1.484,17.619 19.288,34.867" />
        </g>
        <g
           transform="matrix(0.35277777,0,0,-0.35277777,28.761417,116.27649)"
           id="g306">
          <path
             inkscape:connector-curvature="0"
             id="path308"
             style="fill:#877d70;fill-opacity:1;fill-rule:nonzero;stroke:none"
             d="M 0,0 C 16.716,-11.488 29.328,-28.264 34.996,-47.494 H 27.319 C 21.613,-29.068 11.148,-12.124 -6.172,-2.95 -4.146,-1.867 -2.08,-0.888 0,0" />
        </g>
        <g
           transform="matrix(0.35277777,0,0,-0.35277777,56.326658,116.27649)"
           id="g310">
          <path
             inkscape:connector-curvature="0"
             id="path312"
             style="fill:#877d70;fill-opacity:1;fill-rule:nonzero;stroke:none"
             d="m 0,0 c -16.716,-11.488 -29.328,-28.264 -34.996,-47.494 h 7.677 c 5.706,18.426 16.171,35.37 33.491,44.544 C 4.146,-1.867 2.08,-0.888 0,0" />
        </g>
        <g
           transform="matrix(0.35277777,0,0,-0.35277777,41.894627,131.28648)"
           id="g314">
          <path
             inkscape:connector-curvature="0"
             id="path316"
             style="fill:#877d70;fill-opacity:1;fill-rule:nonzero;stroke:none"
             d="M 0,0 H 3.682 82.839 V -9.397 H 3.682 0 -79.158 V 0 Z" />
        </g>
      </g>
    </g>
  </g>
</svg>
