<?xml version="1.0" encoding="UTF-8" standalone="no"?>
<!-- Created with Inkscape (http://www.inkscape.org/) -->

<svg
   xmlns:dc="http://purl.org/dc/elements/1.1/"
   xmlns:cc="http://creativecommons.org/ns#"
   xmlns:rdf="http://www.w3.org/1999/02/22-rdf-syntax-ns#"
   xmlns:svg="http://www.w3.org/2000/svg"
   xmlns="http://www.w3.org/2000/svg"
   xmlns:sodipodi="http://sodipodi.sourceforge.net/DTD/sodipodi-0.dtd"
   xmlns:inkscape="http://www.inkscape.org/namespaces/inkscape"
   width="91.986061mm"
   height="116.09193mm"
   viewBox="0 0 91.986061 116.09193"
   version="1.1"
   id="svg2430"
   inkscape:version="0.92.2 (5c3e80d, 2017-08-06)"
   sodipodi:docname="Char-Soltoon.svg">
  <defs
     id="defs2424" />
  <sodipodi:namedview
     id="base"
     pagecolor="#ffffff"
     bordercolor="#666666"
     borderopacity="1.0"
     inkscape:pageopacity="0.0"
     inkscape:pageshadow="2"
     inkscape:zoom="0.98994949"
     inkscape:cx="423.04128"
     inkscape:cy="178.42038"
     inkscape:document-units="mm"
     inkscape:current-layer="layer1"
     showgrid="false"
     inkscape:window-width="1853"
     inkscape:window-height="1025"
     inkscape:window-x="67"
     inkscape:window-y="27"
     inkscape:window-maximized="1" />
  <metadata
     id="metadata2427">
    <rdf:RDF>
      <cc:Work
         rdf:about="">
        <dc:format>image/svg+xml</dc:format>
        <dc:type
           rdf:resource="http://purl.org/dc/dcmitype/StillImage" />
        <dc:title></dc:title>
      </cc:Work>
    </rdf:RDF>
  </metadata>
  <g
     inkscape:label="Layer 1"
     inkscape:groupmode="layer"
     id="layer1"
     transform="translate(-104.44149,-43.162371)">
    <g
       id="g1536"
       transform="translate(-1.5119042,-52.170437)">
      <g
         id="g512"
         transform="matrix(0.35277777,0,0,-0.35277777,116.71629,95.332808)">
        <path
           d="m 0,0 -7.666,-108.936 3.957,-108.31 h 3.462 0.494 7.914 l -0.495,108.31 z"
           style="fill:#f1d233;fill-opacity:1;fill-rule:nonzero;stroke:none"
           id="path514"
           inkscape:connector-curvature="0" />
      </g>
      <g
         id="g516"
         transform="matrix(0.35277777,0,0,-0.35277777,116.71629,95.332808)">
        <path
           d="m 0,0 -7.666,-108.936 -0.495,-108.31 h 7.914 0.494 z"
           style="fill:#f6e380;fill-opacity:1;fill-rule:nonzero;stroke:none"
           id="path518"
           inkscape:connector-curvature="0" />
      </g>
      <g
         id="g520"
         transform="matrix(0.35277777,0,0,-0.35277777,189.01164,164.90623)">
        <path
           d="m 0,0 c 0,0 11.87,-4.266 13.353,-9.273 1.484,-5.008 5.935,-34.125 6.491,-48.962 0.557,-14.837 -1.298,-29.859 -1.298,-29.859 0,0 3.895,-14.837 -0.556,-15.95 -4.451,-1.113 -18.268,-3.895 -20.123,-1.113 -1.854,2.782 1.206,14.652 0.093,24.296 -1.113,9.644 -3.709,28.19 -5.749,38.576 -2.04,10.386 -4.637,20.401 -4.637,20.401 z"
           style="fill:#0067a5;fill-opacity:1;fill-rule:nonzero;stroke:none"
           id="path522"
           inkscape:connector-curvature="0" />
      </g>
      <g
         id="g524"
         transform="matrix(0.35277777,0,0,-0.35277777,181.97524,159.27953)">
        <path
           d="m 0,0 c 0,0 20.401,-1.484 31.158,-12.982 10.756,-11.499 9.644,-19.659 9.644,-25.223 0,-5.564 -3.71,-11.499 -3.71,-11.499 L 6.677,-57.122 c 0,0 -6.306,36.721 -8.161,43.027 -1.854,6.306 -5.564,11.499 -5.564,11.499 z"
           style="fill:#eec600;fill-opacity:1;fill-rule:nonzero;stroke:none"
           id="path526"
           inkscape:connector-curvature="0" />
      </g>
      <g
         id="g528"
         transform="matrix(0.35277777,0,0,-0.35277777,185.63916,165.49509)">
        <path
           d="m 0,0 c -2.149,1.228 -3.898,-0.142 -3.709,-2.411 0.165,-1.967 2.629,-4.522 3.802,-6.213 2.58,-3.718 4.471,-8.004 5.059,-12.477 0.505,-3.844 1.617,-10.149 4.399,-5.791 2.669,4.182 0.742,10.664 -0.927,14.93 C 7.115,-8.107 3.895,-2.226 0,0"
           style="fill:#0067a5;fill-opacity:1;fill-rule:nonzero;stroke:none"
           id="path530"
           inkscape:connector-curvature="0" />
      </g>
      <g
         id="g532"
         transform="matrix(0.35277777,0,0,-0.35277777,190.34987,164.27377)">
        <path
           d="m 0,0 c -2.149,1.228 -3.898,-0.142 -3.709,-2.411 0.165,-1.967 2.629,-4.522 3.802,-6.213 2.579,-3.718 4.471,-8.004 5.059,-12.477 0.505,-3.844 1.617,-10.149 4.399,-5.791 2.669,4.182 0.742,10.664 -0.927,14.93 C 7.115,-8.107 3.895,-2.226 0,0"
           style="fill:#0067a5;fill-opacity:1;fill-rule:nonzero;stroke:none"
           id="path534"
           inkscape:connector-curvature="0" />
      </g>
      <g
         id="g536"
         transform="matrix(0.35277777,0,0,-0.35277777,187.34025,188.45985)">
        <path
           d="m 0,0 c 0,0 2.782,-17.433 2.967,-18.917 0.186,-1.484 9.088,-2.967 9.088,-2.967 l 11.128,1.854 c 0,0 3.709,8.902 4.822,15.208 1.112,6.306 2.04,19.659 2.04,19.659 z"
           style="fill:#a97c3f;fill-opacity:1;fill-rule:nonzero;stroke:none"
           id="path538"
           inkscape:connector-curvature="0" />
      </g>
      <g
         style="fill:#000000;fill-opacity:1"
         id="g540"
         transform="matrix(0.35277777,0,0,-0.35277777,195.95625,191.02906)">
        <path
           d="m 0,0 c -7.607,-2.267 -14.769,-6.187 -21.485,-10.791 0.135,-8.69 -1.939,-17.908 -0.333,-20.317 1.854,-2.782 15.671,0 20.122,1.113 4.451,1.113 0.557,15.95 0.557,15.95 0,0 0.733,5.944 1.139,14.045"
           style="fill:#000000;fill-opacity:1;fill-rule:nonzero;stroke:none"
           id="path542"
           inkscape:connector-curvature="0" />
      </g>
      <g
         id="g544"
         transform="matrix(0.35277777,0,0,-0.35277777,145.86389,170.9255)">
        <path
           d="m 0,0 c 0,0 -13.168,-35.794 -19.473,-43.398 -6.306,-7.604 -18.176,-12.24 -28.005,-6.677 -9.83,5.564 -10.386,7.419 -10.386,7.419 l 0.556,23.739 c 0,0 9.273,-5.378 16.692,0.185 7.418,5.564 4.822,9.644 4.822,9.644 z"
           style="fill:#0067a5;fill-opacity:1;fill-rule:nonzero;stroke:none"
           id="path546"
           inkscape:connector-curvature="0" />
      </g>
      <g
         id="g548"
         transform="matrix(0.35277777,0,0,-0.35277777,144.23363,159.27953)">
        <path
           d="m 0,0 c 0,0 -20.401,-1.484 -31.158,-12.982 -10.756,-11.499 -9.644,-19.659 -9.644,-25.223 0,-5.564 3.71,-11.499 3.71,-11.499 l 30.415,-7.418 c 0,0 6.306,36.721 8.161,43.027 1.854,6.306 5.564,11.499 5.564,11.499 z"
           style="fill:#eec600;fill-opacity:1;fill-rule:nonzero;stroke:none"
           id="path550"
           inkscape:connector-curvature="0" />
      </g>
      <g
         id="g552"
         transform="matrix(0.35277777,0,0,-0.35277777,140.56972,165.49509)">
        <path
           d="M 0,0 C 2.149,1.228 3.898,-0.142 3.709,-2.411 3.544,-4.378 1.08,-6.933 -0.093,-8.624 c -2.58,-3.718 -4.471,-8.004 -5.059,-12.477 -0.505,-3.844 -1.617,-10.149 -4.399,-5.791 -2.669,4.182 -0.742,10.664 0.927,14.93 C -7.115,-8.107 -3.895,-2.226 0,0"
           style="fill:#0067a5;fill-opacity:1;fill-rule:nonzero;stroke:none"
           id="path554"
           inkscape:connector-curvature="0" />
      </g>
      <g
         id="g556"
         transform="matrix(0.35277777,0,0,-0.35277777,135.859,164.27377)">
        <path
           d="M 0,0 C 2.149,1.228 3.898,-0.142 3.709,-2.411 3.544,-4.378 1.08,-6.933 -0.093,-8.624 c -2.58,-3.718 -4.471,-8.004 -5.059,-12.477 -0.505,-3.844 -1.617,-10.149 -4.399,-5.791 -2.669,4.182 -0.742,10.664 0.927,14.93 C -7.115,-8.107 -3.895,-2.226 0,0"
           style="fill:#0067a5;fill-opacity:1;fill-rule:nonzero;stroke:none"
           id="path558"
           inkscape:connector-curvature="0" />
      </g>
      <g
         style="fill:#000000;fill-opacity:1"
         id="g560"
         transform="matrix(0.35277777,0,0,-0.35277777,128.49103,177.16758)">
        <path
           d="m 0,0 2.992,-40.664 c 0,0 -14.413,12.646 -21.019,17.309 -6.305,4.451 -10.25,6.924 -10.25,6.924 l 3.168,25.319 c 0,0 10.421,-4.368 16.743,-6.358 C -2.044,0.54 0,0 0,0"
           style="fill:#000000;fill-opacity:1;fill-rule:nonzero;stroke:none"
           id="path562"
           inkscape:connector-curvature="0" />
      </g>
      <g
         id="g564"
         transform="matrix(0.35277777,0,0,-0.35277777,110.14087,173.60799)">
        <path
           d="m 0,0 h 37.278 c 6.555,0 11.869,5.314 11.869,11.87 H -11.87 C -11.87,5.314 -6.555,0 0,0"
           style="fill:#c7c4c3;fill-opacity:1;fill-rule:nonzero;stroke:none"
           id="path566"
           inkscape:connector-curvature="0" />
      </g>
      <g
         id="g568"
         transform="matrix(0.35277777,0,0,-0.35277777,116.40902,189.89926)">
        <path
           d="M 0,0 H 1.742 C 6.25,0 9.977,3.516 10.238,8.018 L 12.74,51.187 H -10.999 L -8.496,8.018 C -8.235,3.516 -4.509,0 0,0"
           style="fill:#c7c4c3;fill-opacity:1;fill-rule:nonzero;stroke:none"
           id="path570"
           inkscape:connector-curvature="0" />
      </g>
      <g
         style="fill:#000000;fill-opacity:1"
         id="g572"
         transform="matrix(0.35277777,0,0,-0.35277777,117.0612,173.49005)">
        <path
           d="m 0,0 0.293,-25.248 -9.267,-0.711 c -3.732,-0.286 -6.893,2.692 -6.855,6.457 l 0.134,13.277 c 0.031,3.025 2.405,5.514 5.408,5.667 z"
           style="fill:#000000;fill-opacity:1;fill-rule:nonzero;stroke:none"
           id="path574"
           inkscape:connector-curvature="0" />
      </g>
      <g
         id="g576"
         transform="matrix(0.35277777,0,0,-0.35277777,139.61447,208.48045)">
        <path
           d="m 0,0 c 5.935,2.226 12.055,-0.989 16.135,1.113 2.949,1.519 -1.113,14.466 -1.669,24.11 -0.556,9.644 1.669,20.401 1.669,20.401 l 51.813,-1.415 51.812,1.415 c 0,0 2.226,-10.757 1.669,-20.401 -0.556,-9.644 -4.618,-22.591 -1.669,-24.11 4.08,-2.102 10.2,1.113 16.135,-1.113 5.935,-2.226 5.008,-8.346 5.008,-8.346 H 97.69 c 0,0 1.917,16.877 -4.08,26.521 -3.419,5.499 -14.962,6.806 -22.393,7.062 v -0.014 c 0,0 -1.128,0.06 -2.943,0.068 -0.112,0 -0.219,0 -0.326,0 -0.108,0 -0.215,0 -0.327,0 -1.815,-0.008 -2.943,-0.068 -2.943,-0.068 v 0.014 C 57.247,24.981 45.704,23.674 42.285,18.175 36.289,8.531 38.205,-8.346 38.205,-8.346 H -5.008 c 0,0 -0.927,6.12 5.008,8.346"
           style="fill:#877d70;fill-opacity:1;fill-rule:nonzero;stroke:none"
           id="path578"
           inkscape:connector-curvature="0" />
      </g>
      <g
         id="g580"
         transform="matrix(0.35277777,0,0,-0.35277777,181.85907,203.90055)">
        <path
           d="m 0,0 h -23.796 c 0.777,-2.402 1.271,-4.95 1.577,-7.418 H -1.008 C -0.883,-5.366 -0.471,-2.789 0,0"
           style="fill:#9b9794;fill-opacity:1;fill-rule:nonzero;stroke:none"
           id="path582"
           inkscape:connector-curvature="0" />
      </g>
      <g
         style="fill:#000000;fill-opacity:1"
         id="g584"
         transform="matrix(0.35277777,0,0,-0.35277777,187.55524,208.48045)">
        <path
           d="m 0,0 c -5.935,2.226 -12.055,-0.989 -16.135,1.113 -0.938,0.483 -1.162,2.13 -1.02,4.451 h -21.21 c 0.907,-7.306 0.16,-13.91 0.16,-13.91 H 5.008 c 0,0 0.927,6.12 -5.008,8.346"
           style="fill:#000000;fill-opacity:1;fill-rule:nonzero;stroke:none"
           id="path586"
           inkscape:connector-curvature="0" />
      </g>
      <g
         id="g588"
         transform="matrix(0.35277777,0,0,-0.35277777,145.31063,203.90055)">
        <path
           d="M 0,0 H 23.797 C 23.019,-2.402 22.525,-4.95 22.219,-7.418 H 1.008 C 0.883,-5.366 0.471,-2.789 0,0"
           style="fill:#9b9794;fill-opacity:1;fill-rule:nonzero;stroke:none"
           id="path590"
           inkscape:connector-curvature="0" />
      </g>
      <g
         style="fill:#000000;fill-opacity:1"
         id="g592"
         transform="matrix(0.35277777,0,0,-0.35277777,139.61447,208.48045)">
        <path
           d="m 0,0 c 5.935,2.226 12.055,-0.989 16.135,1.113 0.938,0.483 1.162,2.13 1.02,4.451 h 21.21 c -0.907,-7.306 -0.16,-13.91 -0.16,-13.91 H -5.008 c 0,0 -0.927,6.12 5.008,8.346"
           style="fill:#000000;fill-opacity:1;fill-rule:nonzero;stroke:none"
           id="path594"
           inkscape:connector-curvature="0" />
      </g>
      <g
         id="g596"
         transform="matrix(0.35277777,0,0,-0.35277777,185.34766,189.85562)">
        <path
           d="m 0,0 c -2.141,49.209 -12.774,83.829 -12.774,83.829 l -101.942,0.989 c 0,0 -8.099,-36.845 -9.583,-72.948 -0.409,-9.96 -1.854,-30.664 3.091,-39.442 3.543,-6.287 11.096,-7.326 28.158,-4.915 12.655,1.788 24.283,11.02 29.45,15.672 l 0.38,0.062 c 5.217,-4.681 18.833,-13.864 31.405,-15.641 17.062,-2.411 24.961,-1.259 28.067,5.255 C 0.703,-17.804 0.355,-8.153 0,0"
           style="fill:#0067a5;fill-opacity:1;fill-rule:nonzero;stroke:none"
           id="path598"
           inkscape:connector-curvature="0" />
      </g>
      <g
         id="g600"
         transform="matrix(0.35277777,0,0,-0.35277777,187.11126,160.16281)">
        <path
           d="m 0,0 c 0,0 -17.155,-23.461 -41.265,-47.2 -24.11,-23.739 -31.158,-33.383 -31.158,-33.383 l -30.786,-0.742 -2.968,0.371 c 0,0 44.511,40.06 57.864,53.413 13.353,13.353 20.03,23.739 20.03,23.739 0,0 15.857,9.18 28.283,3.802"
           style="fill:#21a7c9;fill-opacity:1;fill-rule:nonzero;stroke:none"
           id="path602"
           inkscape:connector-curvature="0" />
      </g>
      <g
         id="g604"
         transform="matrix(0.35277777,0,0,-0.35277777,162.78343,161.24235)">
        <path
           d="m 0,0 c 0,0 11.384,-24.626 29.921,-23.986 21.514,0.741 21.266,25.47 21.266,25.47 z"
           style="fill:#eec600;fill-opacity:1;fill-rule:nonzero;stroke:none"
           id="path606"
           inkscape:connector-curvature="0" />
      </g>
      <g
         id="g608"
         transform="matrix(0.35277777,0,0,-0.35277777,162.90203,161.24235)">
        <path
           d="m 0,0 c 0,0 -11.384,-24.626 -29.921,-23.986 -21.514,0.741 -21.266,25.47 -21.266,25.47 z"
           style="fill:#eec600;fill-opacity:1;fill-rule:nonzero;stroke:none"
           id="path610"
           inkscape:connector-curvature="0" />
      </g>
      <g
         id="g612"
         transform="matrix(0.35277777,0,0,-0.35277777,174.71289,98.57988)">
        <path
           d="M 0,0 -21.514,-13.724 -34.019,6.517 -46.524,-13.724 -68.037,0 l 9.273,-30.601 24.745,1.375 24.746,-1.375 z"
           style="fill:#eec600;fill-opacity:1;fill-rule:nonzero;stroke:none"
           id="path614"
           inkscape:connector-curvature="0" />
      </g>
      <g
         id="g616"
         transform="matrix(0.35277777,0,0,-0.35277777,187.76553,135.95489)">
        <path
           d="M 0,0 C 2.875,1.762 9.44,3.512 15.617,2.333 19.976,1.501 23.823,-1.259 25.13,-5.471 28.468,-16.228 21.715,-22.366 12.204,-23.887 7.326,-24.666 4.405,-24.501 -0.649,-23.832 -1.049,-16.366 -1.211,-8.471 0,0"
           style="fill:#f4c3a8;fill-opacity:1;fill-rule:nonzero;stroke:none"
           id="path618"
           inkscape:connector-curvature="0" />
      </g>
      <g
         id="g620"
         transform="matrix(0.35277777,0,0,-0.35277777,137.62441,135.95489)">
        <path
           d="m 0,0 c -2.875,1.762 -9.44,3.512 -15.617,2.333 -4.359,-0.832 -8.206,-3.592 -9.513,-7.804 -3.338,-10.757 3.415,-16.895 12.926,-18.416 4.878,-0.779 7.799,-0.614 12.853,0.055 C 1.049,-16.366 1.211,-8.471 0,0"
           style="fill:#f4c3a8;fill-opacity:1;fill-rule:nonzero;stroke:none"
           id="path622"
           inkscape:connector-curvature="0" />
      </g>
      <g
         id="g624"
         transform="matrix(0.35277777,0,0,-0.35277777,189.82645,129.57568)">
        <path
           d="m 0,0 c -2.226,19.288 -11.87,30.044 -26.336,40.059 -14.466,10.015 -27.819,11.499 -33.754,13.353 -4.348,1.359 -27.702,1.855 -33.637,0 -5.935,-1.854 -19.288,-3.338 -33.754,-13.353 -14.466,-10.015 -24.11,-20.771 -26.335,-40.059 -2.226,-19.288 -1.593,-66.09 8.16,-82.345 6.08,-10.134 45.5,-11.385 69.881,-11.16 23.502,-0.225 61.534,1.026 67.615,11.16 C 1.593,-66.09 2.226,-19.288 0,0"
           style="fill:#f9dbcc;fill-opacity:1;fill-rule:nonzero;stroke:none"
           id="path626"
           inkscape:connector-curvature="0" />
      </g>
      <g
         id="g628"
         transform="matrix(0.35277777,0,0,-0.35277777,183.56726,138.40842)">
        <path
           d="m 0,0 c 0,-5.941 -4.816,-10.757 -10.757,-10.757 -5.941,0 -10.757,4.816 -10.757,10.757 0,5.941 4.816,10.757 10.757,10.757 C -4.816,10.757 0,5.941 0,0"
           style="fill:#211915;fill-opacity:1;fill-rule:nonzero;stroke:none"
           id="path630"
           inkscape:connector-curvature="0" />
      </g>
      <g
         id="g632"
         transform="matrix(0.35277777,0,0,-0.35277777,182.14969,138.16335)">
        <path
           d="m 0,0 c 0,-1.963 -1.591,-3.555 -3.555,-3.555 -1.963,0 -3.554,1.592 -3.554,3.555 0,1.963 1.591,3.555 3.554,3.555 C -1.591,3.555 0,1.963 0,0"
           style="fill:#ffffff;fill-opacity:1;fill-rule:nonzero;stroke:none"
           id="path634"
           inkscape:connector-curvature="0" />
      </g>
      <g
         id="g636"
         transform="matrix(0.35277777,0,0,-0.35277777,150.59224,138.40842)">
        <path
           d="m 0,0 c 0,-5.941 -4.816,-10.757 -10.757,-10.757 -5.941,0 -10.757,4.816 -10.757,10.757 0,5.941 4.816,10.757 10.757,10.757 C -4.816,10.757 0,5.941 0,0"
           style="fill:#211915;fill-opacity:1;fill-rule:nonzero;stroke:none"
           id="path638"
           inkscape:connector-curvature="0" />
      </g>
      <g
         id="g640"
         transform="matrix(0.35277777,0,0,-0.35277777,147.05796,138.16335)">
        <path
           d="m 0,0 c 0,-1.963 -1.591,-3.555 -3.555,-3.555 -1.963,0 -3.554,1.592 -3.554,3.555 0,1.963 1.591,3.555 3.554,3.555 C -1.591,3.555 0,1.963 0,0"
           style="fill:#ffffff;fill-opacity:1;fill-rule:nonzero;stroke:none"
           id="path642"
           inkscape:connector-curvature="0" />
      </g>
      <g
         style="fill:#000000;fill-opacity:1"
         id="g644"
         transform="matrix(0.35277777,0,0,-0.35277777,153.7763,132.68358)">
        <path
           d="m 0,0 h -31.529 c -3.38,0 -6.12,2.74 -6.12,6.12 0,3.38 2.74,6.12 6.12,6.12 H 0 C 3.38,12.24 6.12,9.5 6.12,6.12 6.12,2.74 3.38,0 0,0"
           style="fill:#000000;fill-opacity:1;fill-rule:nonzero;stroke:none"
           id="path646"
           inkscape:connector-curvature="0" />
      </g>
      <g
         id="g656"
         transform="matrix(0.35277777,0,0,-0.35277777,171.66256,140.34947)">
        <path
           d="m 0,0 c -2.72,6.924 -25.717,35.609 -25.717,35.609 l -0.005,-0.023 -0.005,0.023 c 0,0 -22.998,-28.685 -25.718,-35.609 -2.72,-6.924 -2.529,-9.462 6.182,-10.88 7.551,-1.23 13.488,-1.683 17.252,-1.844 l 0.006,-0.073 c 0,0 0.797,-0.026 2.283,0.002 1.486,-0.028 2.282,-0.002 2.282,-0.002 l 0.006,0.073 c 3.764,0.161 9.701,0.614 17.252,1.844 C 2.53,-9.462 2.72,-6.924 0,0"
           style="fill:#f2a899;fill-opacity:1;fill-rule:nonzero;stroke:none"
           id="path658"
           inkscape:connector-curvature="0" />
      </g>
      <g
         style="fill:#000000;fill-opacity:1"
         id="g660"
         transform="matrix(0.35277777,0,0,-0.35277777,182.82579,132.68358)">
        <path
           d="m 0,0 h -31.528 c -3.381,0 -6.121,2.74 -6.121,6.12 0,3.38 2.74,6.12 6.121,6.12 H 0 C 3.38,12.24 6.12,9.5 6.12,6.12 6.12,2.74 3.38,0 0,0"
           style="fill:#000000;fill-opacity:1;fill-rule:nonzero;stroke:none"
           id="path662"
           inkscape:connector-curvature="0" />
      </g>
      <g
         style="fill:#000000;fill-opacity:1"
         id="g664"
         transform="matrix(0.35277777,0,0,-0.35277777,191.48395,121.9863)">
        <path
           d="m 0,0 c -1.236,13.601 -27.696,33.878 -50.693,39.071 -17.496,3.95 -26.96,4.179 -30.495,4.063 -3.534,0.116 -12.998,-0.113 -30.495,-4.063 -22.997,-5.193 -49.456,-25.47 -50.692,-39.071 -1.237,-13.6 2.816,-43.213 2.816,-43.213 0,0 3.366,1.917 10.042,12.055 6.024,9.147 5.808,27.145 5.708,30.579 2.225,-0.697 5.277,-1.121 9.535,-0.905 14.589,0.742 26.212,4.946 31.405,6.924 5.192,1.978 16.073,6.43 16.073,6.43 0,0 -10.633,-6.182 -1.731,-10.386 8.902,-4.204 28.437,0.989 37.34,4.204 6.429,2.321 12.068,5.408 14.714,6.949 C -25.513,8.876 -18.546,0 -18.546,0 c 0,0 -0.989,-21.019 5.687,-31.158 6.677,-10.138 9.397,-11.869 9.397,-11.869 0,0 4.698,29.427 3.462,43.027"
           style="fill:#000000;fill-opacity:1;fill-rule:nonzero;stroke:none"
           id="path666"
           inkscape:connector-curvature="0" />
      </g>
      <path
         d="M 185.63909,190.37904 H 140.9746 v -4.88526 h 44.66449 z"
         style="fill:#000000;fill-opacity:1;fill-rule:nonzero;stroke:none;stroke-width:0.35277775"
         id="path668"
         inkscape:connector-curvature="0" />
      <g
         id="g670"
         transform="matrix(0.35277777,0,0,-0.35277777,167.31966,191.07641)">
        <path
           d="m 0,0 c 0,-1.667 -1.364,-3.031 -3.031,-3.031 h -19.664 c -1.667,0 -3.031,1.364 -3.031,3.031 v 19.409 c 0,1.667 1.364,3.031 3.031,3.031 H -3.031 C -1.364,22.44 0,21.076 0,19.409 Z m 1.789,28.683 h -29.303 c -2.485,0 -4.518,-2.033 -4.518,-4.517 V -4.757 c 0,-2.485 2.033,-4.518 4.518,-4.518 H 1.789 c 2.484,0 4.517,2.033 4.517,4.518 v 28.923 c 0,2.484 -2.033,4.517 -4.517,4.517"
           style="fill:#eec600;fill-opacity:1;fill-rule:nonzero;stroke:none"
           id="path672"
           inkscape:connector-curvature="0" />
      </g>
      <g
         id="g674"
         transform="matrix(0.35277777,0,0,-0.35277777,161.38763,188.63434)">
        <path
           d="m 0,0 h -10.139 c -1.36,0 -2.472,1.113 -2.472,2.473 v 0 c 0,1.36 1.112,2.473 2.472,2.473 H 0 c 1.36,0 2.473,-1.113 2.473,-2.473 v 0 C 2.473,1.113 1.36,0 0,0"
           style="fill:#eec600;fill-opacity:1;fill-rule:nonzero;stroke:none"
           id="path676"
           inkscape:connector-curvature="0" />
      </g>
      <g
         style="fill:#000000;fill-opacity:1"
         transform="matrix(0.35277777,0,0,-0.35277777,195.24328,160.43347)"
         id="g46">
        <path
           inkscape:connector-curvature="0"
           id="path48"
           style="fill:#000000;fill-opacity:1;fill-rule:nonzero;stroke:none"
           d="m 0,0 c 0.072,3.063 -0.136,6.217 -0.727,9.389 -0.632,3.155 -1.605,6.329 -2.987,9.442 -1.468,3.12 -3.226,5.984 -5.29,8.727 -4.157,5.426 -9.459,10.022 -15.216,13.504 -5.76,3.517 -11.959,5.995 -18.169,7.524 -6.28,1.546 -12.32,2.058 -18.001,1.939 -5.657,-0.165 -10.906,-0.968 -15.578,-2.302 -4.681,-1.33 -8.821,-3.149 -12.413,-5.408 -1.515,-0.964 -2.628,-2.044 -3.402,-3.181 -0.775,1.137 -1.887,2.217 -3.402,3.181 -3.592,2.259 -7.733,4.078 -12.414,5.408 -4.671,1.334 -9.92,2.137 -15.577,2.302 -5.682,0.119 -11.722,-0.393 -18.001,-1.939 -6.211,-1.529 -12.41,-4.007 -18.169,-7.524 -5.758,-3.482 -11.06,-8.078 -15.217,-13.504 -2.063,-2.743 -3.821,-5.607 -5.289,-8.727 -1.382,-3.113 -2.355,-6.287 -2.987,-9.442 -0.592,-3.172 -0.8,-6.326 -0.727,-9.389 0.104,-3.071 0.587,-6.052 1.308,-8.872 0.749,-2.824 1.877,-5.457 3.181,-7.868 1.346,-2.407 3.015,-4.502 4.76,-6.383 -1.369,2.082 -2.558,4.349 -3.239,6.839 -0.664,2.485 -1.057,5.07 -0.949,7.695 0.106,2.616 0.498,5.228 1.286,7.742 0.798,2.509 1.879,4.913 3.215,7.128 1.382,2.196 2.997,4.187 4.769,5.894 1.741,1.665 3.854,3.179 5.946,4.433 1.043,0.647 2.166,1.187 3.245,1.736 1.138,0.491 2.232,0.994 3.392,1.396 2.292,0.829 4.602,1.518 6.965,2.001 2.357,0.488 4.705,0.856 7.041,1.101 2.342,0.225 4.648,0.365 6.908,0.427 4.504,0.084 9.053,-0.06 13.408,-0.168 8.723,-0.214 17.076,-0.101 24.07,2.446 2.782,0.998 5.093,2.867 6.477,5.101 1.383,-2.234 3.694,-4.103 6.476,-5.101 6.994,-2.547 15.347,-2.66 24.07,-2.446 4.355,0.108 8.904,0.252 13.409,0.168 2.26,-0.062 4.565,-0.202 6.908,-0.427 2.335,-0.245 4.684,-0.613 7.04,-1.101 2.363,-0.483 4.673,-1.172 6.966,-2.001 1.159,-0.402 2.254,-0.905 3.392,-1.396 1.079,-0.549 2.202,-1.089 3.245,-1.736 2.092,-1.254 4.205,-2.768 5.945,-4.433 1.773,-1.707 3.388,-3.698 4.769,-5.894 1.337,-2.215 2.417,-4.619 3.215,-7.128 0.788,-2.514 1.181,-5.126 1.286,-7.742 0.109,-2.625 -0.285,-5.21 -0.948,-7.695 -0.681,-2.49 -1.87,-4.757 -3.24,-6.839 1.745,1.881 3.415,3.976 4.76,6.383 1.304,2.411 2.433,5.044 3.182,7.868 0.72,2.82 1.203,5.801 1.308,8.872" />
      </g>
    </g>
  </g>
</svg>
